<svg xmlns="http://www.w3.org/2000/svg" viewBox="0 0 24 24" fill="none" stroke="currentColor" stroke-width="1.75" stroke-linecap="round" stroke-linejoin="round">
  <path d="M9 13 L 9 5 a 1.2 1.2 0 0 1 2.4 0 L 11.4 11"></path>
  <path d="M11.4 11 L 11.4 4 a 1.2 1.2 0 0 1 2.4 0 L 13.8 11"></path>
  <path d="M13.8 11 L 13.8 5.5 a 1.2 1.2 0 0 1 2.4 0 L 16.2 12"></path>
  <path d="M16.2 12 L 16.2 8 a 1.2 1.2 0 0 1 2.4 0 L 18.6 15 a 6 6 0 0 1 -11 3 L 5.5 13.5 a 1.3 1.3 0 0 1 1.8 -1.8 L 9 13.2"></path>
</svg>